<?xml version="1.0" standalone="no"?><!DOCTYPE svg PUBLIC "-//W3C//DTD SVG 1.1//EN" "http://www.w3.org/Graphics/SVG/1.1/DTD/svg11.dtd"><svg t="1648805501780" class="icon" viewBox="0 0 3754 1024" version="1.1" xmlns="http://www.w3.org/2000/svg" p-id="1124" xmlns:xlink="http://www.w3.org/1999/xlink" width="117.3125" height="32"><defs><style type="text/css"></style></defs><path d="M607.64928 778.325333L573.08928 938.666667H294.731947c-52.565333 0-92.16-3.157333-118.613334-9.386667C82.678613 907.605333 26.27328 846.08 6.731947 744.618667c-12.373333-68.266667-7.68-152.746667 13.994666-253.269334 25.941333-120.32 67.754667-218.282667 125.44-293.717333 42.069333-54.784 91.136-94.72 147.114667-119.893333C349.34528 52.650667 417.18528 40.106667 496.80128 40.106667h269.994667L732.235947 200.362667H481.355947c-75.605333 0-135.936 22.954667-180.906667 68.778666-37.546667 37.717333-66.986667 105.984-88.32 204.8-28.672 132.864-24.746667 219.989333 11.776 261.290667 25.6 28.757333 72.277333 43.093333 139.946667 43.093333H607.64928zM1128.779947 40.106667l46.933333 701.866666L1536.246613 40.106667H1783.542613L1589.835947 938.666667h-161.28l145.237333-673.621334L1220.598613 938.666667h-174.421333l-51.882667-673.621334L849.05728 938.666667h-161.28L881.483947 40.106667h247.296z m1182.464 499.797333l-30.208 140.117333h-336.896c-6.058667 43.093333-0.341333 73.642667 17.322666 91.562667 17.578667 17.92 50.688 26.965333 99.328 26.965333h194.730667L2225.31328 938.666667h-212.650667c-46.250667 0-82.773333-4.693333-109.909333-14.165334a182.613333 182.613333 0 0 1-71.765333-46.421333c-57.514667-62.037333-73.130667-154.026667-46.762667-276.224 17.066667-79.018667 50.688-148.138667 100.864-207.445333 34.133333-40.448 71.082667-69.12 110.592-86.186667 39.509333-17.066667 88.32-25.6 146.517333-25.6h224.597334l-30.208 140.032h-212.650667c-43.861333 0-76.288 8.362667-97.365333 24.917333-21.162667 16.64-38.570667 47.445333-52.224 92.330667h336.896z m531.626666 0c9.898667-45.824 8.448-76.8-4.437333-93.013333-12.8-16.128-43.52-24.234667-92.16-24.234667H2476.44928l30.208-140.117333h269.994667c48.554667 0 81.749333 1.194667 99.584 3.413333 17.834667 2.218667 35.669333 6.485333 53.418666 12.8 80.213333 37.717333 102.570667 128 66.986667 270.762667L2917.02528 938.666667h-336.896c-60.586667 0-101.973333-2.048-124.16-6.058667a116.053333 116.053333 0 0 1-55.552-24.917333c-39.253333-35.925333-51.029333-90.282667-35.328-162.986667a296.106667 296.106667 0 0 1 53.504-117.930667c26.112-34.56 56.149333-58.112 89.856-70.741333 29.44-10.752 75.605333-16.213333 138.496-16.213333h195.925333z m-55.722666 258.645333l25.6-118.613333h-211.541334a71.68 71.68 0 0 0-47.104 16.213333 76.373333 76.373333 0 0 0-25.6 44.458667c-4.522667 20.650667-1.194667 35.498667 10.069334 44.458667 11.178667 8.96 32.682667 13.482667 64.597333 13.482666h183.978667z m926.037333-516.010666l-30.208 140.117333H3399.755947c-32.682667 0-53.76 1.792-63.317334 5.461333-19.882667 7.168-32.853333 24.661333-38.826666 52.48-5.034667 23.381333-0.170667 41.301333 14.677333 53.930667 6.997333 6.229333 27.136 9.813333 60.330667 10.581333l109.397333 0.170667c60.501333 0 105.216 14.336 133.973333 43.093333 32.085333 32.426667 41.386667 79.957333 27.818667 142.848a305.408 305.408 0 0 1-64 130.645334c-24.32 31.402667-50.090667 52.053333-77.312 61.952-27.221333 9.898667-70.314667 14.848-129.194667 14.848h-330.922666l30.208-140.117334 324.437333-0.256c14.677333-0.170667 25.6-0.597333 33.024-1.109333 29.44-3.584 47.786667-22.016 54.954667-55.210667 5.802667-26.965333 0.170667-45.312-16.810667-55.210666-7.338667-4.778667-25.514667-7.424-54.442667-8.021334l-109.824-0.085333c-38.229333 0-66.986667-2.730667-86.101333-8.106667a114.176 114.176 0 0 1-50.346667-29.610666c-17.834667-17.066667-29.696-40.618667-35.498666-70.741334a238.08 238.08 0 0 1 2.218666-96.341333c14.165333-65.536 46.506667-117.589333 97.024-156.245333 30.549333-23.381333 77.226667-34.986667 140.202667-34.986667h341.674667z" fill="#3A84FF" p-id="1125"></path><path d="M607.64928 778.325333L573.08928 938.666667H294.731947c-52.565333 0-92.16-3.157333-118.613334-9.386667C82.678613 907.605333 26.27328 846.08 6.731947 744.618667c-12.373333-68.266667-7.68-152.746667 13.994666-253.269334 25.941333-120.32 67.754667-218.282667 125.44-293.717333 42.069333-54.784 91.136-94.72 147.114667-119.893333C349.34528 52.650667 417.18528 40.106667 496.80128 40.106667h269.994667L732.235947 200.362667H481.355947c-75.605333 0-135.936 22.954667-180.906667 68.778666-37.546667 37.717333-66.986667 105.984-88.32 204.8-28.672 132.864-24.746667 219.989333 11.776 261.290667 25.6 28.757333 72.277333 43.093333 139.946667 43.093333H607.64928z" fill="#081E40" p-id="1126"></path></svg>