<?xml version="1.0" encoding="UTF-8"?>
<svg width="20px" height="20px" viewBox="0 0 20 20" version="1.1" xmlns="http://www.w3.org/2000/svg" xmlns:xlink="http://www.w3.org/1999/xlink">
    <g id="数据管理和仪表盘" stroke="none" stroke-width="1" fill-rule="evenodd">
        <g id="系统管理" transform="translate(-20.000000, -165.000000)" fill-rule="nonzero">
            <g id="编组-6备份" transform="translate(0.000000, 33.000000)">
                <g id="仪表板" transform="translate(0.000000, 120.000000)">
                    <g transform="translate(4.000000, 12.000000)" id="成功">
                        <g transform="translate(16.000000, 0.000000)">
                            <path d="M16.9842805,4.09320896 C20.9368734,7.95052582 21.0141062,14.2817043 17.156791,18.2342805 C17.0999908,18.2924838 17.0424825,18.3499921 16.9842788,18.4067927 L3.01571952,18.4067927 C-0.936873449,14.5494742 -1.01410623,8.21829574 2.84320896,4.26571952 C6.70052582,0.313126551 13.0317043,0.235893767 16.9842805,4.09320896 Z M7.14285669,10.4787154 L8.58714159,14.9944208 C8.59522114,15.1405667 8.63126826,15.2833341 8.69285093,15.4151317 L8.7628554,15.5429914 C9.17482055,16.124249 9.92878585,16.3374445 10.5771304,16.0750981 L10.7142816,16.0115632 C11.3218171,15.7370266 11.5917666,15.0219633 11.3172283,14.4144278 C11.294031,14.3630934 11.267269,14.313446 11.2371381,14.2658491 L11.2371375,14.2601364 C11.1229541,14.0907688 10.9708251,13.9503793 10.7928513,13.8501359 L7.14285669,10.4787154 Z M3.75,10 L2.08333333,10 C1.62309604,10 1.25,10.373096 1.25,10.8333333 C1.25,11.2935706 1.62309604,11.6666667 2.08333333,11.6666667 L2.08333333,11.6666667 L3.75,11.6666667 C4.21023729,11.6666667 4.58333333,11.2935706 4.58333333,10.8333333 C4.58333333,10.373096 4.21023729,10 3.75,10 L3.75,10 Z M17.9166667,10 L16.25,10 C15.7897627,10 15.4166667,10.373096 15.4166667,10.8333333 C15.4166667,11.2935706 15.7897627,11.6666667 16.25,11.6666667 L16.25,11.6666667 L17.9166667,11.6666667 C18.376904,11.6666667 18.75,11.2935706 18.75,10.8333333 C18.75,10.373096 18.376904,10 17.9166667,10 L17.9166667,10 Z M4.56239478,5.0714887 C4.23695787,4.74605179 3.70932039,4.74605179 3.38388348,5.0714887 C3.05844657,5.39692561 3.05844657,5.92456309 3.38388348,6.25 L3.38388348,6.25 L4.56239478,7.4285113 C4.88783169,7.75394821 5.41546917,7.75394821 5.74090608,7.4285113 C6.06634299,7.10307439 6.06634299,6.57543691 5.74090608,6.25 L5.74090608,6.25 Z M16.6161165,5.0714887 C16.2906796,4.74605179 15.7630421,4.74605179 15.4376052,5.0714887 L15.4376052,5.0714887 L14.2590939,6.25 C13.933657,6.57543691 13.933657,7.10307439 14.2590939,7.4285113 C14.5845308,7.75394821 15.1121683,7.75394821 15.4376052,7.4285113 L15.4376052,7.4285113 L16.6161165,6.25 C16.9415534,5.92456309 16.9415534,5.39692561 16.6161165,5.0714887 Z M10,2.08333333 C9.53976271,2.08333333 9.16666667,2.45642938 9.16666667,2.91666667 L9.16666667,2.91666667 L9.16666667,4.58333333 C9.16666667,5.04357062 9.53976271,5.41666667 10,5.41666667 C10.4602373,5.41666667 10.8333333,5.04357062 10.8333333,4.58333333 L10.8333333,4.58333333 L10.8333333,2.91666667 C10.8333333,2.45642938 10.4602373,2.08333333 10,2.08333333 Z" id="形状"></path>
                        </g>
                    </g>
                </g>
            </g>
        </g>
    </g>
</svg>
