<?xml version="1.0" encoding="UTF-8"?>
<svg width="20px" height="20px" viewBox="0 0 20 20" version="1.1" xmlns="http://www.w3.org/2000/svg" xmlns:xlink="http://www.w3.org/1999/xlink">
    <g id="数据管理和仪表盘" stroke="none" stroke-width="1" fill-rule="evenodd">
        <g id="系统管理" transform="translate(-20.000000, -305.000000)" fill-rule="nonzero">
            <g id="编组-6备份" transform="translate(0.000000, 33.000000)">
                <g id="仪表板备份-2" transform="translate(0.000000, 260.000000)">
                    <g id="仪表板" transform="translate(4.000000, 12.000000)">
                        <g id="成功" transform="translate(16.000000, 0.000000)">
                            <path d="M18.6483265,6.91844574 L18.7754468,6.98343847 C19.1462117,7.20514241 19.3734797,7.60511412 19.3741515,8.03710881 L19.3741515,15.7440262 C19.385372,16.1980505 19.1449676,16.621163 18.7491987,16.8439431 L12.344683,19.8687143 C12.1844518,19.9559946 12.0046795,20.0011528 11.8222226,19.9999777 L11.8209746,19.9987042 C11.6716055,19.9980394 11.524282,19.9683189 11.3870659,19.9117088 L11.2535176,19.8462158 C10.887928,19.620727 10.6637341,19.2233117 10.6598124,18.7937953 L10.6598124,11.0493831 C10.6700164,10.6138204 10.9076277,10.2154306 11.2860131,9.99946055 L17.6980282,6.95844055 C17.9943591,6.79986699 18.3444351,6.78730831 18.6483265,6.91844574 Z M2.32293853,6.97844048 L8.69120705,10.000712 C9.07492803,10.2094462 9.31990951,10.6131657 9.33740822,11.0531324 L9.33740822,18.7737945 C9.33430504,19.1559843 9.15677698,19.512906 8.86033741,19.7460375 L8.74370703,19.8274667 C8.61503082,19.9056781 8.47301953,19.9583771 8.32542223,19.9832257 L8.17625017,19.9987042 C7.9945973,19.998561 7.8158614,19.9530176 7.65628948,19.8662142 L1.27552174,16.8414428 C0.870495727,16.625547 0.619764684,16.2017139 0.625570885,15.7427759 L0.625570864,8.03086292 C0.62763241,7.64783632 0.806681993,7.29028156 1.10547377,7.05903876 L1.2230217,6.97844058 C1.56361118,6.78298466 1.98234905,6.78298466 2.32293853,6.97844048 Z M10.9022939,0.20395072 L17.6167862,3.41370804 C18.2173501,3.68725959 18.4824472,4.39587203 18.2088937,4.996436 C18.0894053,5.25876382 17.879114,5.46905651 17.6167861,5.58854357 L10.5548201,8.94453984 C10.3823331,9.03578294 10.1923475,9.08702906 9.99861212,9.09452864 C9.80464371,9.08670763 9.61476255,9.03635726 9.44240449,8.94703979 L2.38043843,5.58854372 C1.77987443,5.31499213 1.51477924,4.60637969 1.78833083,4.00581572 C1.90781925,3.7434879 2.11811058,3.5331952 2.3804384,3.41370814 L9.09118102,0.203950824 C9.66426247,-0.0679835905 10.3292122,-0.0679835905 10.9022939,0.20395072 Z" id="形状结合"></path>
                        </g>
                    </g>
                </g>
            </g>
        </g>
    </g>
</svg>
