<svg t="1662618590448" class="icon" viewBox="0 0 1024 1024" version="1.1" xmlns="http://www.w3.org/2000/svg" p-id="3091" width="32" height="32">
    <path d="M924.6340737 475.59111073c-19.41807445 0-36.40888889 16.99081443-36.4088889 36.4088889v364.08888888c0 7.28177778-4.8545189 12.13629667-12.13629553 12.13629667H147.91111149c-7.28177778 0-12.13629667-4.8545189-12.13629667-12.13629667V147.91111073c0-7.28177778 4.8545189-12.13629667 12.13629667-12.13629553h364.08888888c19.41807445 0 36.40888889-16.99081443 36.4088889-36.4088889s-16.99081443-36.40888889-36.4088889-36.40888888H147.91111149c-46.11792555 0-84.95407445 38.83614777-84.95407446 84.95407331v728.17777778c0 46.11792555 38.83614777 84.95407445 84.95407446 84.95407446h728.17777778c46.11792555 0 84.95407445-38.83614777 84.95407331-84.95407446V511.99999963c0-19.41807445-16.99081443-36.40888889-36.40888888-36.4088889z" p-id="3092"></path><path d="M414.90962925 456.17303742l-36.40888889 143.20829554c-2.42725888 12.13629667 0 26.69985223 9.70903779 33.98163001 7.28177778 7.28177778 16.99081443 9.70903666 26.6998511 9.70903666h9.70903779l143.20829554-36.4088889c7.28177778-2.42725888 12.13629667-4.8545189 16.99081557-9.70903665l342.24355556-342.24355556c43.69066667-43.69066667 43.69066667-116.50844445 0-160.19911111-43.69066667-43.69066667-116.50844445-43.69066667-160.19911111 0L424.61866704 439.18222185c-4.8545189 4.8545189-7.28177778 9.70903666-9.70903779 16.99081557z m67.96326002 26.69985109L820.26192592 147.91111073c14.56355555-14.56355555 41.26340779-14.56355555 55.82696335 0 14.56355555 14.56355555 14.56355555 41.26340779 0 55.82696335L541.12711149 541.12711073l-75.24503779 19.41807445 16.99081557-77.67229667z" p-id="3093"></path>
</svg>
