<?xml version="1.0" standalone="no"?><!DOCTYPE svg PUBLIC "-//W3C//DTD SVG 1.1//EN" "http://www.w3.org/Graphics/SVG/1.1/DTD/svg11.dtd"><svg t="1657019141045" class="icon" viewBox="0 0 1024 1024" version="1.1" xmlns="http://www.w3.org/2000/svg" p-id="11200" xmlns:xlink="http://www.w3.org/1999/xlink" width="64" height="64"><defs><style type="text/css"></style></defs><path d="M32 21.333333m85.333333 0l650.517334 0q85.333333 0 85.333333 85.333334l0 678.72q0 85.333333-85.333333 85.333333l-650.517334 0q-85.333333 0-85.333333-85.333333l0-678.72q0-85.333333 85.333333-85.333334Z" fill="rgba(58, 132, 255, 0.1)" p-id="11201"></path><path d="M169.92 185.685333m85.333333 0l650.517334 0q85.333333 0 85.333333 85.333334l0 650.517333q0 85.333333-85.333333 85.333333l-650.517334 0q-85.333333 0-85.333333-85.333333l0-650.517333q0-85.333333 85.333333-85.333334Z" fill="#AACAFF" p-id="11202"></path><path d="M344.554667 525.76H565.973333a26.666667 26.666667 0 0 0 0-53.333333H344.533333a26.666667 26.666667 0 1 0 0 53.333333zM344.554667 678.506667h442.816a26.666667 26.666667 0 0 0 0-53.333334H344.554667a26.666667 26.666667 0 1 0 0 53.333334zM344.554667 831.232h442.816a26.666667 26.666667 0 1 0 0-53.333333H344.554667a26.666667 26.666667 0 1 0 0 53.333333z" fill="#FFFFFF" p-id="11203"></path></svg>