<?xml version="1.0" encoding="UTF-8"?>
<svg width="10px" height="10px" viewBox="0 0 10 10" version="1.1" xmlns="http://www.w3.org/2000/svg" xmlns:xlink="http://www.w3.org/1999/xlink">
    <g id="页面-1" stroke="none" stroke-width="1" fill-rule="evenodd">
        <g id="20.面包屑" transform="translate(-106.000000, -1097.000000)" fill="#CBD5E0" fill-rule="nonzero">
            <g id="面包屑备份-4" transform="translate(54.000000, 1092.000000)">
                <g id="面包屑" transform="translate(57.000000, 10.000000) rotate(-90.000000) translate(-57.000000, -10.000000) translate(52.000000, 5.000000)">
                    <path d="M0.122038841,2.41370551 C0.276193167,2.25955118 0.5210857,2.2514378 0.684791416,2.38936535 L0.711294492,2.41370551 L5,6.70229167 L9.28870551,2.41370551 C9.44285983,2.25955118 9.68775237,2.2514378 9.85145808,2.38936535 L9.87796116,2.41370551 C10.0321155,2.56785983 10.0402289,2.81275237 9.90230132,2.97645808 L9.87796116,3.00296116 L5.29462783,7.58629449 C5.1404735,7.74044882 4.89558097,7.7485622 4.73187525,7.61063465 L4.70537217,7.58629449 L0.122038841,3.00296116 C-0.0406796137,2.8402427 -0.0406796137,2.57642396 0.122038841,2.41370551 Z" id="路径-2"></path>
                </g>
            </g>
        </g>
    </g>
</svg>
