<?xml version="1.0" encoding="UTF-8"?>
<svg width="48px" height="48px" viewBox="0 0 48 48" version="1.1" xmlns="http://www.w3.org/2000/svg" xmlns:xlink="http://www.w3.org/1999/xlink">
    <g id="度量图标优化" stroke="none" stroke-width="1" fill-rule="evenodd">
        <g id="任务管理" fill-rule="nonzero">
            <g id="编组-3" transform="translate(24.000000, 24.000000) rotate(-360.000000) translate(-24.000000, -24.000000) ">
                <path d="M18.9561266,0.000444786063 L19.4458384,0.00543248242 C24.3417815,0.121353986 28.9344175,2.08852736 32.4049101,5.55902012 C37.0953575,10.2522678 38.9703547,16.9748776 37.4446447,23.3881419 L37.3490166,23.7725478 L37.248,24.145 L45.2949131,32.1883691 C47.9478054,34.8442089 48.7090372,38.821316 47.2895535,42.2872282 L47.1696758,42.5670917 L47.0402062,42.8444978 L46.8920754,43.1349963 L46.5855456,43.6623437 L46.5107924,43.7793784 L46.1785282,44.2589804 L46.0990575,44.3644575 L45.7663031,44.774842 L45.6858487,44.8669162 L45.2888933,45.2908689 C43.5410503,47.0307126 41.2054011,47.9960874 38.7429657,47.9960874 C36.8885452,47.9960874 35.1078545,47.4484438 33.5365811,46.3888212 L33.2444546,46.184151 L32.7749641,45.8139858 L32.6707213,45.7245603 L32.1976352,45.2860464 L24.152,37.24 L24.0920373,37.2581768 L23.5799173,37.3930567 L23.0455828,37.5179835 L22.0269939,37.7114019 L20.9944893,37.8496657 L19.9618297,37.9310554 L18.9811167,37.9576763 C13.9251402,37.9576763 9.15558483,35.9818263 5.56338381,32.3992863 C0.645128218,27.4810307 -1.17473191,20.3270853 0.771424251,13.6421303 L0.885610607,13.2642556 L1.16904266,12.4332502 L1.43811965,11.7409237 L2.64756579,8.81162996 L3.78942975,6.45482292 C3.92576168,6.17343383 4.27737266,6.09066021 4.52286794,6.26068995 L4.59301166,6.31933717 L14.9024894,16.6322719 C15.125337,16.8558932 15.4454639,16.9895424 15.7553573,16.9895424 C16.0859126,16.9895424 16.4084485,16.8564821 16.6399308,16.6250037 C16.8723235,16.3934041 16.9945393,16.095819 16.9945451,15.7539244 C16.9949635,15.5827998 16.9560113,15.4057154 16.8843205,15.2468563 L16.84,15.162 L16.731,15.002 L16.6363187,14.8938397 L6.31300854,4.57052949 C6.09060572,4.34812666 6.12971343,3.98642221 6.37368914,3.8114551 L6.45297125,3.76489312 L8.93172304,2.5944752 L11.7410709,1.43512595 C13.2552749,0.808631996 14.8242167,0.386660655 16.4709109,0.16642452 L17.0227203,0.100480326 L18.0975898,0.020464982 L18.9561266,0.000444786063 Z M18.99,3.999 L18.2982742,4.01401447 L17.3860267,4.08352249 C16.1269863,4.21683473 14.8996098,4.50850666 13.7117276,4.95673772 L13.2681384,5.13215957 L12.746,5.347 L19.5399223,12.1448162 L19.8155653,12.4539102 L19.953022,12.6302054 L20.2030284,12.9939052 L20.2676917,13.0956899 C20.7428033,13.8992454 20.9968191,14.8289354 20.9945392,15.7588207 C20.9945347,17.1577002 20.4500206,18.4751271 19.4659362,19.4558484 C18.4859555,20.4358261 17.1457003,20.9895424 15.7553573,20.9895424 C14.4675631,20.9895424 13.2097913,20.4997162 12.2576465,19.6357534 L12.0713742,19.4580067 L5.352,12.737 L5.15162821,13.2269441 L4.92777361,13.7986612 L4.68824435,14.5043283 C3.01833695,19.8359636 4.43715533,25.6162037 8.38990484,29.5689557 C11.1324135,32.3040865 14.7302918,33.8523303 18.5324935,33.9531653 L18.9265268,33.9584227 L19.7449081,33.9383488 L20.5629331,33.8745089 L21.3783041,33.7658823 L22.2352631,33.6013208 C22.6520921,33.5089868 23.0711103,33.3973121 23.452201,33.2789268 L23.7302809,33.1890768 L24.8898394,32.7422923 C25.0479763,32.6813612 25.2241587,32.7052077 25.3593045,32.8013103 L25.4231841,32.855325 L34.9674707,42.4013585 L35.3116072,42.7201797 L35.6569439,42.9945061 C36.413712,43.5440645 37.2857053,43.8765472 38.1985646,43.9689973 L38.473574,43.9895084 L38.7429657,43.9960874 C40.0529742,43.9960874 41.2979909,43.5203053 42.2317572,42.6827255 L42.4142874,42.5104194 L42.7003776,42.2044009 L42.9328239,41.9195106 L43.1684049,41.5815606 L43.3931334,41.1983039 C44.39142,39.3047812 44.1402174,36.9885296 42.7871453,35.3675907 L42.632277,35.1904045 L42.4660647,35.0163743 L32.8962083,25.451438 C32.7840783,25.3393657 32.7330441,25.1823579 32.754431,25.0288485 L32.7760443,24.9375501 L33.3239954,23.3187894 C34.9287036,18.0233538 33.4962595,12.3095642 29.576061,8.38702514 C26.8393929,5.65035699 23.2384898,4.10514933 19.3859576,4.00517623 L18.99,3.999 Z" id="系统维护" transform="translate(23.999025, 23.998266) rotate(-360.000000) translate(-23.999025, -23.998266) "></path>
            </g>
        </g>
    </g>
</svg>
